<svg xml:space="preserve" viewBox="149.04000000000002 138.24 846.72 803.52" version="1.1" xmlns:xlink="http://www.w3.org/1999/xlink" xmlns="http://www.w3.org/2000/svg" style="max-height: 500px" width="846.72" height="803.52">
<desc>Created with Fabric.js 5.2.4</desc>
<defs>
</defs>
<g id="7affb22f-325a-4837-9ab1-6314f9b98183" transform="matrix(1 0 0 1 540 540)">
<rect height="1080" width="1080" ry="0" rx="0" y="-540" x="-540" style="stroke: none; stroke-width: 1; stroke-dasharray: none; stroke-linecap: butt; stroke-dashoffset: 0; stroke-linejoin: miter; stroke-miterlimit: 4; fill: rgb(255,255,255); fill-rule: nonzero; opacity: 1; visibility: hidden;"/>
</g>
<g id="f065fdf3-ca5f-4e0b-87e2-735d29fb2e6e" transform="matrix(1 0 0 1 540 540)">
</g>
<g transform="matrix(1 0 0 1 574.91 540)">
<g style="">
		<g transform="matrix(1.59 0 0 1.59 -243.12 243.03)">
<polygon points="-28.44,82.5 17.56,82.5 28.44,-82.5 -17.56,-82.5" style="stroke: none; stroke-width: 1; stroke-dasharray: none; stroke-linecap: butt; stroke-dashoffset: 0; stroke-linejoin: miter; stroke-miterlimit: 4; fill: rgb(247,126,101); fill-rule: nonzero; opacity: 1;"/>
</g>
		<g transform="matrix(1.59 0 0 1.59 -204.28 -345.82)">
<polygon points="24.19,-18 -21.81,-18 -24.19,18 21.81,18" style="stroke: none; stroke-width: 1; stroke-dasharray: none; stroke-linecap: butt; stroke-dashoffset: 0; stroke-linejoin: miter; stroke-miterlimit: 4; fill: rgb(247,126,101); fill-rule: nonzero; opacity: 1;"/>
</g>
		<g transform="matrix(1.59 0 0 1.59 204.28 -345.82)">
<polygon points="21.81,-18 -24.19,-18 -21.81,18 24.19,18" style="stroke: none; stroke-width: 1; stroke-dasharray: none; stroke-linecap: butt; stroke-dashoffset: 0; stroke-linejoin: miter; stroke-miterlimit: 4; fill: rgb(247,126,101); fill-rule: nonzero; opacity: 1;"/>
</g>
		<g transform="matrix(1.59 0 0 1.59 243.12 243.03)">
<polygon points="-17.56,82.5 28.44,82.5 17.56,-82.5 -28.44,-82.5" style="stroke: none; stroke-width: 1; stroke-dasharray: none; stroke-linecap: butt; stroke-dashoffset: 0; stroke-linejoin: miter; stroke-miterlimit: 4; fill: rgb(247,126,101); fill-rule: nonzero; opacity: 1;"/>
</g>
		<g transform="matrix(1.59 0 0 1.59 0 -102.79)">
<rect height="269" width="482" ry="0" rx="0" y="-134.5" x="-241" style="stroke: none; stroke-width: 1; stroke-dasharray: none; stroke-linecap: butt; stroke-dashoffset: 0; stroke-linejoin: miter; stroke-miterlimit: 4; fill: rgb(255,254,240); fill-rule: nonzero; opacity: 1;"/>
</g>
		<g transform="matrix(1.59 0 0 1.59 0 0)">
<path stroke-linecap="round" d="M 492 41.999 L 412.73699999999997 41.999 L 410.979 15.341000000000001 C 410.632 10.085 406.268 5.9990000000000006 401 5.9990000000000006 L 355 5.9990000000000006 C 352.233 5.9990000000000006 349.591 7.1450000000000005 347.7 9.165000000000001 C 345.80899999999997 11.185000000000002 344.84 13.897000000000002 345.022 16.658 L 346.693 41.999 L 155.307 41.999 L 156.97899999999998 16.657000000000004 C 157.16099999999997 13.896000000000004 156.19099999999997 11.184000000000005 154.301 9.164000000000003 C 152.409 7.145000000000003 149.767 5.999000000000003 147 5.999000000000003 L 101 5.999000000000003 C 95.732 5.999000000000003 91.368 10.085000000000004 91.021 15.341000000000005 L 89.263 41.99900000000001 L 10 41.99900000000001 C 4.477 41.99900000000001 0 46.47600000000001 0 51.99900000000001 L 0 320.999 C 0 326.52200000000005 4.477 330.999 10 330.999 L 70.201 330.999 L 69.21199999999999 345.999 L 16 345.999 C 10.477 345.999 6 350.476 6 355.999 C 6 361.52200000000005 10.477 365.999 16 365.999 L 67.893 365.999 L 60.022 485.341 C 59.839999999999996 488.10200000000003 60.809999999999995 490.814 62.701 492.834 C 64.592 494.854 67.234 496 70.001 496 L 116.001 496 C 121.269 496 125.63300000000001 491.914 125.98 486.658 L 133.937 366 L 368.064 366 L 376.02200000000005 486.658 C 376.369 491.914 380.73300000000006 496 386.00100000000003 496 L 432.00100000000003 496 C 434.76800000000003 496 437.41 494.854 439.30100000000004 492.834 C 441.19200000000006 490.814 442.16200000000003 488.102 441.98 485.341 L 434.107 366 L 442 366 C 447.523 366 452 361.523 452 356 C 452 350.477 447.523 346 442 346 L 432.788 346 L 431.79900000000004 331 L 492 331 C 497.523 331 502 326.523 502 321 L 502 52 C 502 46.476 497.523 41.999 492 41.999 z M 365.681 25.999 L 391.638 25.999 L 392.69399999999996 41.998999999999995 L 366.73699999999997 41.998999999999995 L 365.681 25.999 z M 110.362 25.999 L 136.319 25.999 L 135.26299999999998 41.998999999999995 L 109.30599999999998 41.998999999999995 L 110.362 25.999 z M 90.245 331 L 116.202 331 L 115.213 346 L 89.256 346 L 90.245 331 z M 106.638 476 L 80.681 476 L 87.93599999999999 366 L 113.893 366 L 106.638 476 z M 135.256 346 L 136.245 331 L 365.755 331 L 366.74399999999997 346 L 135.256 346 z M 421.319 476 L 395.362 476 L 388.107 366 L 414.064 366 L 421.319 476 z M 412.744 346 L 386.78700000000003 346 L 385.79800000000006 331 L 411.75500000000005 331 L 412.744 346 z M 20 311 L 20 62 L 482 62 L 482 311 L 20 311 z" transform="translate(-251, -251)" style="stroke: none; stroke-width: 1; stroke-dasharray: none; stroke-linecap: butt; stroke-dashoffset: 0; stroke-linejoin: miter; stroke-miterlimit: 4; fill: rgb(0,0,0); fill-rule: nonzero; opacity: 1;"/>
</g>
		<g transform="matrix(1.59 0 0 1.59 367.33 167.33)">
<path stroke-linecap="round" d="M 486 346 L 477 346 C 471.477 346 467 350.477 467 356 C 467 361.523 471.477 366 477 366 L 486 366 C 491.523 366 496 361.523 496 356 C 496 350.477 491.523 346 486 346 z" transform="translate(-481.5, -356)" style="stroke: none; stroke-width: 1; stroke-dasharray: none; stroke-linecap: butt; stroke-dashoffset: 0; stroke-linejoin: miter; stroke-miterlimit: 4; fill: rgb(0,0,0); fill-rule: nonzero; opacity: 1;"/>
</g>
		<g transform="matrix(1.59 0 0 1.59 -132.27 -253.39)">
<path stroke-linecap="round" d="M 281 81.999 L 55 81.999 C 49.477000000000004 81.999 45 86.476 45 91.999 C 45 97.52199999999999 49.477000000000004 101.999 55 101.999 L 281 101.999 C 286.523 101.999 291 97.52199999999999 291 91.999 C 291 86.476 286.523 81.999 281 81.999 z" transform="translate(-168, -92)" style="stroke: none; stroke-width: 1; stroke-dasharray: none; stroke-linecap: butt; stroke-dashoffset: 0; stroke-linejoin: miter; stroke-miterlimit: 4; fill: rgb(0,0,0); fill-rule: nonzero; opacity: 1;"/>
</g>
		<g transform="matrix(1.59 0 0 1.59 136.25 -253.39)">
<path stroke-linecap="round" d="M 349 81.999 L 324 81.999 C 318.477 81.999 314 86.476 314 91.999 C 314 97.52199999999999 318.477 101.999 324 101.999 L 349 101.999 C 354.523 101.999 359 97.52199999999999 359 91.999 C 359 86.476 354.523 81.999 349 81.999 z" transform="translate(-336.5, -92)" style="stroke: none; stroke-width: 1; stroke-dasharray: none; stroke-linecap: butt; stroke-dashoffset: 0; stroke-linejoin: miter; stroke-miterlimit: 4; fill: rgb(0,0,0); fill-rule: nonzero; opacity: 1;"/>
</g>
</g>
</g>
<g id="0a5ecb54-3015-4f56-8ae2-da59426bed5f" transform="matrix(1 0 0 1 540 540)">
<rect height="66.167" width="66.167" ry="0" rx="0" y="-33.0835" x="-33.0835" style="stroke: rgb(0,0,0); stroke-width: 0; stroke-dasharray: none; stroke-linecap: butt; stroke-dashoffset: 0; stroke-linejoin: miter; stroke-miterlimit: 4; fill: rgb(254,255,240); fill-rule: nonzero; opacity: 1;"/>
</g>
<g id="f6030917-b997-457d-839e-94e63d926f4d" transform="matrix(9.58 0 0 1 556.28 290.95)">
<rect height="66.167" width="66.167" ry="0" rx="0" y="-33.0835" x="-33.0835" style="stroke: rgb(0,0,0); stroke-width: 0; stroke-dasharray: none; stroke-linecap: butt; stroke-dashoffset: 0; stroke-linejoin: miter; stroke-miterlimit: 4; fill: rgb(254,255,240); fill-rule: nonzero; opacity: 1;"/>
</g>
</svg>