<!DOCTYPE svg PUBLIC "-//W3C//DTD SVG 1.1//EN" "http://www.w3.org/Graphics/SVG/1.1/DTD/svg11.dtd">
<!-- Uploaded to: SVG Repo, www.svgrepo.com, Transformed by: SVG Repo Mixer Tools -->
<svg version="1.1" id="Layer_1" xmlns="http://www.w3.org/2000/svg" xmlns:xlink="http://www.w3.org/1999/xlink" viewBox="0 0 512 512" xml:space="preserve" width="800px" height="800px" fill="#b49d9d" stroke="#b49d9d">
<g id="SVGRepo_bgCarrier" stroke-width="0"/>
<g id="SVGRepo_tracerCarrier" stroke-linecap="round" stroke-linejoin="round"/>
<g id="SVGRepo_iconCarrier"> <rect x="89.872" y="452.085" style="fill:#e0bbae;" width="332.255" height="49.021"/> <g> <path style="fill:#d29daa;" d="M422.128,441.191h-13.617V217.872c0-72.037-50.207-132.563-117.464-148.44 c5.354-7.239,8.528-16.184,8.528-25.858C299.574,19.548,280.027,0,256,0s-43.574,19.548-43.574,43.574 c0,9.675,3.173,18.619,8.528,25.857c-67.257,15.877-117.464,76.403-117.464,148.441v223.319H89.872 c-6.015,0-10.894,4.877-10.894,10.894v49.021c0,6.017,4.878,10.894,10.894,10.894h332.255c6.015,0,10.894-4.877,10.894-10.894 v-49.021C433.021,446.069,428.143,441.191,422.128,441.191z M386.723,217.872v223.319h-65.362v-53.383 c0-6.017-4.878-10.894-10.894-10.894c-6.015,0-10.894,4.877-10.894,10.894v53.383h-87.149V203.16 c0-56.013,25.576-116.012,43.576-116.012c17.998,0,43.573,59.999,43.573,116.012v76.255c0,6.017,4.878,10.894,10.894,10.894 c6.015,0,10.894-4.877,10.894-10.894V203.16c0-28.147-6.246-60.833-16.71-87.435c-3.475-8.836-7.23-16.543-11.227-23.109 C347.326,108.751,386.723,158.793,386.723,217.872z M234.213,43.574c0-12.013,9.774-21.787,21.787-21.787 s21.787,9.774,21.787,21.787S268.013,65.362,256,65.362S234.213,55.588,234.213,43.574z M125.277,217.872 c0-59.078,39.398-109.119,93.297-125.255c-3.996,6.566-7.751,14.272-11.226,23.108c-10.463,26.602-16.71,59.289-16.71,87.435 v238.031h-65.362V217.872z M411.234,490.213H100.766v-27.234h310.468V490.213z"/> <path style="fill:#d29daa;" d="M310.468,323.807c-6.015,0-10.894,4.877-10.894,10.894v1.089c0,6.017,4.878,10.894,10.894,10.894 c6.015,0,10.894-4.877,10.894-10.894v-1.089C321.362,328.684,316.484,323.807,310.468,323.807z"/> </g> </g>
</svg>